<svg id="Layer_1" data-name="Layer 1" xmlns="http://www.w3.org/2000/svg" viewBox="0 0 500 500"><defs><style>.cls-1{fill:#1a1a18;}</style></defs><path class="cls-1" d="M419.5,410.49c2.17-7.94,5.56-22.61,5.56-35.25,0-11.32-3.51-22.63-8-36.93-7.34-23.55-17.34-55.73-17.34-108.88,0-30.34-5.84-51.15-17.21-62.09a29.91,29.91,0,0,0-23.27-8.08h-1c-35.09.14-57.09,8.31-78.43,16.17-18.57,6.84-36.11,13.33-60.33,13.33-11.15,0-18.09-1.69-21.17-5.18a8.14,8.14,0,0,1-1.7-7.14v-.83c0-.91.55-3.45,2.32-11.39,5.69-25.8,20.79-94.35,12.71-116C200.85,19,168.19,17.55,149.76,19.29,123.37,23.41,101.84,53.21,95.4,63.1c4.25,0,10.42.53,12.83,3.18a4.18,4.18,0,0,1,1.23,3,2.48,2.48,0,0,1-.11.73,14.08,14.08,0,0,0-.13,2.4c0,5.06,1.72,12.18,2.78,16.72l.81,3.19c.84,4.14,9.27,22.82,12.59,24.19,2,.79,7.53-2.84,11.67-6.74a7.06,7.06,0,0,0,.16-1.8c0-2.62-.52-8.31-2.84-20.47,0-13.51,2.45-21,7.44-22.87,5.95-2.18,12.2,4.81,13,5.72,3.44,4.6,4.61,10.9,4.61,17.68,0,18.29-8.93,40.11-9.41,41.2,0,0-.91,2.78-1,3.06-15.68,31.93-18.7,58-18.7,73.18,0,9.14,1.07,14.28,1.13,14.43,1.47,7.34,5.47,19.63,10,21.6l1.31.5.32,30.93.78,80.63c-1.43,29.54-5.24,98.77-9.9,103.47a71.64,71.64,0,0,0-14.3,20.22c8.39,1.66,19.58,2.76,22.25.07.86-.88-.32-5.38-1-7.81-1.13-4.37-2.22-8.57,0-10.88l3.93-2.26c3.54-1.38,7.16-2.92,7.43-11.9l.23-6.72c.62-18.41,2.52-74.41,2.52-82.53l.67-71.66c0-.69.36-72.21,84.46-74.95l21.81.07c27,1.56,43.28,10.82,58.87,20.95l-2.07,3.61c-18.07-9.38-43.64-15.67-53-16.75,27.16,24,36.52,55.53,36.52,87.29,0,45.14-18.52,90.64-30.45,115.18l-.11.37-.24.26c-8.87,8.78-11.3,16.19-12.26,19.82,8.72.82,16.33,1,17.58.37,1.52-1.51.49-5.43-.25-8.66-.84-3.58-1.61-6.68.25-8.57l1.48-1.45,1.48,1.45a1.65,1.65,0,0,0,.95.52c4.16-9.92,32.09-103.16,32.34-108.48,0-4.19,7-66.5,14.72-76.88l1.06-1.38,1.55.74c21.65,10.7,35,36,35,59.54,0,30.81-4.46,101.12-5.12,110.77-.07.83-2.8,21.51-6.49,34.48a15.46,15.46,0,0,0-.83,4.45,6.12,6.12,0,0,0,.56,2.57,6.16,6.16,0,0,1,.58,2.45c0,2.31-1.8,5.1-7.19,11.58-6.8,8.12-8.79,15.08-9.36,18.21a71.1,71.1,0,0,0,9.56-.2h5.06c2.79.21,5.48.37,6.5-.8.62-.7,1.17-2.57.28-7.07-2-10.14.21-13.41,3.47-16.91a13,13,0,0,0,3-4.54c2.57-6.77,3.24-56.47,3.24-62.92l1.07-12.92c5.61-62.12,6.63-95.3,3.12-98.66-1.54-1-3.67-3.51-6.67-16l0-.34,0-.39c5.79-59.16-4.79-76.95-11.64-82.36l-.47-.38-.21-.51a6.54,6.54,0,0,1,.4-5.68c3.79-6.93,15.63-3.08,21.93,2.3,15.5,13.71,18.06,60.87,15.94,81.77a169.55,169.55,0,0,0-.85,17.74c0,44.41,13.74,96.3,19.3,112.86,3.4,10.19,6.76,18.94,8.85,24.36"/><path class="cls-1" d="M129.71,240.5A46.13,46.13,0,0,1,126,227.83C116.81,233.71,86.9,252.91,86.9,253l-6.36,3.71c-3.35,1.93-5.6,3.71-5.6,8.6a36.64,36.64,0,0,0,2,10.33c13.5,46.48,20.48,73.31,20.67,80.28,5.48,11.7,10.58,18.56,13.13,21.62,3.78-6.35,8.26-15.37,8.26-19.88,0-.35,0-.71,0-1v0c-.3-1.39-5-1.93-7.27-2.22-3.21-.37-5.51-.63-6.27-2.5l-.61-.78,2.43-3.56a6.71,6.71,0,0,0,1.83-4.83,27.32,27.32,0,0,0-1.72-8.3L98.5,310.33s-14.79-40-14.88-40.26-.11-.35-.11-.56c0-1.79,2.47-5.84,29.16-20.45l7-3.59s7.41-3.64,10.06-5"/></svg>